
<svg xmlns="http://www.w3.org/2000/svg" width="535.514" height="271.476" viewBox="0 0 535.514 271.476">
  <g id="axieinfinity_-_hover" data-name="axieinfinity - hover" transform="translate(0.001)">
    <path id="infinity" d="M778.392,533.581l4.022-9.345L771.5,503.864h9l5.8,12.067h.232l5.8-12.067h9l-10.912,20.372-4.022,9.345Zm-32.282,0V510.365h-8.937v-6.5H763v6.5h-8.937v23.216Zm-44,0-10.737-15.613H691.2v15.613h-8.067V503.865h6.848l10.564,15.552h.231V503.865h8.067v29.716Zm-68.139,0V503.865h20.894v6.5H642.042v5.108h11.551v6.5H642.042v11.608Zm-17.266,0-10.738-15.613H605.8v15.613h-8.067V503.865h6.849l10.564,15.552h.232V503.865h8.067v29.716Zm102.679-.011V503.86h8.071V533.57Zm-54.848,0V503.86h8.071V533.57Zm-85.4,0V503.86h8.071V533.57Zm325.437-28.933c-.4-4.4.862-19.989,1.341-24.133.21-1.825.111-2.873-.32-3.4a1.978,1.978,0,0,0-1.5-.519,7.25,7.25,0,0,1-.86-.1,3.173,3.173,0,0,0-.477-.02c-5.437,0-54.292,3.545-59.856,4.042-.536.047-1.041.071-1.522.071-4.961,0-6.7-2.612-7.863-5.434-.9-2.185-11.286-46.745-19.636-82.549-5.761-24.71-10.74-46.054-11.2-47.5a7.38,7.38,0,0,1-.15-4.664,6.652,6.652,0,0,1,2.832-3.38c1.732-1.123,29.925-12.813,41.965-17.787,20.513-8.476,41.63-17.08,45.183-18.412a14.5,14.5,0,0,1,4.892-1.082,4.251,4.251,0,0,1,3.242,1.207c.985,1.051,1.406,2.816,1.251,5.244a118.9,118.9,0,0,0,.7,14.575,88.657,88.657,0,0,0,1.986,13.575,7.952,7.952,0,0,1,.2,5.174,4.987,4.987,0,0,1-2.886,2.87,37.33,37.33,0,0,0-9.884,6.36,55.339,55.339,0,0,0-7.414,8.01,60.574,60.574,0,0,0-6.835,11.1,4.773,4.773,0,0,1-4.191,2.871,3.718,3.718,0,0,1-1.172-.189,70.428,70.428,0,0,1-13.407-6.7,5.429,5.429,0,0,0-2.97-1.083,3,3,0,0,0-2.3,1.044c-1.207,1.33-1.73,3.788-1.437,6.743a20.122,20.122,0,0,0,2.872,8.126,37.324,37.324,0,0,0,3.832,5.281,5.852,5.852,0,0,0,4.329,2.145,3.676,3.676,0,0,0,2.374-.8,35.029,35.029,0,0,0,6.7-8.044,4.858,4.858,0,0,1,4.014-2.7c1.506,0,3.218.858,5.371,2.7,1.5,1.283,7.06,3.145,15.247,5.112a118.509,118.509,0,0,0,15.59,2.932c4.013.079,4.022,1.585,4.022,2.681,0,.44-.375,2.732-.851,5.631-.764,4.656-1.81,11.034-1.83,13.139-.035,3.352-1.589,5.158-2.682,5.363-1.172.22-26.815,9.541-29.5,10.726-3,1.322-2.682,2.093-1.349,5.341l.008.021c1.389,3.384,3.174,3.813,5.363,4.022,2.526.243,50.194,1.341,54.891,1.341h.079c.708,0,1.33-.024,1.931-.046.516-.019,1-.036,1.475-.036,2.613,0,4.576.614,8.668,4.105,4.425,3.774,4,4.707,3.29,6.255a6.888,6.888,0,0,0-.615,1.789c-.374,2.176-4.776,12.624-7.991,20.255v.008l-.021.054c-1.176,2.789-2.189,5.2-2.71,6.5-1.731,4.341-.755,5.095.861,6.33l.016.012c.15.115.306.235.464.362a36.387,36.387,0,0,0,5.352,3.182c1.171.622,2.494,1.326,4.033,2.181a4.144,4.144,0,0,1,2.238,4.217,8.293,8.293,0,0,1-4.923,6.508c-1.622.567-7.893,2.64-15.15,5.038-10.294,3.4-21.961,7.258-25.072,8.369a11.526,11.526,0,0,1-3.765.784C906.269,509.444,904.867,507.873,904.571,504.637Zm-296.3-17.43c-.786-.87-5.941-5.72-11.909-11.335l-.017-.016c-8.729-8.214-19.592-18.434-20.245-19.488-1.148-1.833-1.421-4.424,0-5.363.757-.5,8.191-8.2,14.9-15.23,6.737-7.07,14.039-14.841,14.6-15.607.076-.1.154-.208.233-.312,1.027-1.364,2.189-2.909-.233-6.39-2.627-3.776-21.672-34.137-22.792-36.2a8.58,8.58,0,0,1-1.23-4,4.515,4.515,0,0,1,2.563-4.047c2.256-1.3,12.547-7.308,20.815-12.139l.176-.1.118-.068c5.78-3.377,10.773-6.293,11.069-6.46a3.945,3.945,0,0,1,1.725-.344,4.608,4.608,0,0,1,3.637,1.685c.99,1.181,8.254,8.723,15.285,16.017l.013.013c6.229,6.466,12.112,12.575,12.864,13.466A3.774,3.774,0,0,0,652.8,382.5a6.543,6.543,0,0,0,3.735-1.207c.939-.7,10.967-9.346,20.666-17.706l.041-.038c8.328-7.177,16.194-13.956,16.833-14.434a6.863,6.863,0,0,1,3.763-1.408,3.726,3.726,0,0,1,2.94,1.408c.969,1.144,6.5,6.559,12.351,12.293,7.2,7.051,15.358,15.043,15.8,15.862a3.537,3.537,0,0,1,.473,2.389,5.832,5.832,0,0,1-1.812,2.974c-1.519,1.523-16.573,13.651-26.535,21.677l-.046.038c-4.9,3.943-8.762,7.059-9.62,7.776a4.023,4.023,0,0,0-1.511,3.054,5.138,5.138,0,0,0,1.511,3.655,13.954,13.954,0,0,1,1.157,1.609,61.331,61.331,0,0,0,9.1,11.061c5.349,4.938,10.92,7.441,16.558,7.441,8.028,0,11.976-1.094,13.871-2.011,2.053-.992,2.216-2,2.218-2.011a2.3,2.3,0,0,1,1.475-.85,1.445,1.445,0,0,1,1.207.85c.827,1.382,3.687,13.169,5.4,20.21.67,2.773,1.16,4.776,1.307,5.265a7.031,7.031,0,0,1-.562,4.676,1.3,1.3,0,0,1-.78.685c-.508.106-5.71,3.7-13.914,9.609-6.8,4.895-13.45,9.8-14.241,10.5a5.938,5.938,0,0,1-3.68.939,11.576,11.576,0,0,1-7.046-2.281c-1.563-1.252-10.451-7.945-19.862-15.028l-.029-.022c-11.5-8.658-23.387-17.609-24.353-18.469a5.559,5.559,0,0,0-3.609-1.322,3.908,3.908,0,0,0-3.094,1.322c-.916,1.107-12.724,12.085-19.679,18.53-9.309,8.626-18.709,17.267-19.2,17.67a5.034,5.034,0,0,1-2.919,1.164,3.227,3.227,0,0,1-2.444-1.164Zm-87.7-3.777v-.012c-.027-.081-.052-.16-.078-.235-.181-.528-1.153-5.581-2.093-10.469v-.008l-.046-.24-.066-.335c-.791-4.112-1.538-8-1.79-9.057a6.314,6.314,0,0,0-4-4.022c-1.176-.5-16.151-6.081-18.65-6.7a3.226,3.226,0,0,0-.776-.1c-1.689,0-2.527,1.527-3.029,2.44l-.033.062c-.058.106-.109.2-.158.28-.473.792-13.484,25.79-14.654,28.155a4.527,4.527,0,0,1-4,2.682H432.565a9.971,9.971,0,0,1-7.225-2.173l-.767-.509a4.736,4.736,0,0,1-2.242-3.237,4.51,4.51,0,0,1,.914-3.467c.738-.929,11.875-25.5,22.216-48.722,10.352-23.26,22.284-50.5,24.71-57.2,2.079-5.741,2.145-10.8.211-15.042a19.584,19.584,0,0,0-6.914-7.751c-4.678-3.265-20.548-13.81-24.134-16.089a4.574,4.574,0,0,1-2.2-2.905,5.246,5.246,0,0,1,.858-3.8c.429-.636,2.517-5.244,4.534-9.7l.066-.142c2.027-4.477,4.123-9.1,4.785-10.266a2.854,2.854,0,0,1,2.458-1.624,3.888,3.888,0,0,1,2.905,1.622,44.992,44.992,0,0,0,3.792,4.013l.009.008a.082.082,0,0,1,0-.027c-.147-1.24-.839-7.583,0-10.7a38.046,38.046,0,0,1,5.214-11.566,31.877,31.877,0,0,1,6.764-7.2,30.613,30.613,0,0,1,10.667-5.363,7.779,7.779,0,0,1,1.983-.283,3.743,3.743,0,0,1,3.347,1.624c.536.829,11.6,15.877,13.322,17.43a4.259,4.259,0,0,1,1.458,3.754,2.081,2.081,0,0,1-1.458,1.609,17.314,17.314,0,0,0-5.6,3.246,15.07,15.07,0,0,0-5.057,8.821c-1.85,9.881,6.236,13.618,14.056,17.232h.012c1.073.5,2.187,1.011,3.25,1.534,5.552,2.726,28.021,7.475,44.42,10.94l.054.012c8.687,1.837,15.543,3.286,16.8,3.8a8.249,8.249,0,0,1,5.328,8.044c-.031,1.676-.939,30.051-2.034,64.165v.185L569,418.419l-.019.571c-.939,29.463-1.837,57.294-1.865,58.833a5.816,5.816,0,0,1-1.491,3.812,4.658,4.658,0,0,1-2.512,1.551c-1.207.174-34.937,2.681-38.631,2.681C521.339,485.867,520.892,484.459,520.564,483.431ZM510.28,415.386l.018.007c2.3.928,4.47,1.8,5.459,2.1a5.114,5.114,0,0,0,1.441.2,11.552,11.552,0,0,0,4.462-1.207c.338-.148.593-.257.8-.331a8.612,8.612,0,0,0,4.022-5.363c.331-1.516-.11-6.686-.578-12.159-.319-3.746-.65-7.615-.764-10.632a8.487,8.487,0,0,0-2.733-6.6,14.478,14.478,0,0,0-5.383-2.413l-.16-.047c-.369-.109-.747-.221-1.109-.335a8.854,8.854,0,0,0-2.673-.438,5.68,5.68,0,0,0-5.375,3.124c-1.022,2.235-6.869,20.407-8.045,24.133-.961,3.048-.536,5.178.123,6.075a1.367,1.367,0,0,0,1.1.634h.2C502.187,412.127,506.487,413.858,510.28,415.386Zm283.01,62.437c-4.168-.516-16.3-2.887-25.162-4.616h-.03c-5.587-1.091-10-1.953-11.01-2.082-2.694-.344-5.37-1.558-6.7-8.044-1.536-7.465-6.064-29.4-6.7-32.178a13.434,13.434,0,0,1,1.341-10.726l.252-.436a95.479,95.479,0,0,0,5.706-11.184,37.5,37.5,0,0,0,3.428-15.2c-.327-10.5-1.609-12.754-4.022-13.407a85.34,85.34,0,0,0-9.772-1.137c-1.093-.09-1.958-.16-2.294-.2l-.165-.02c-1.184-.143-2.207-.268-3.856-6.684a72.763,72.763,0,0,0-2.95-9.02,30.207,30.207,0,0,1-1.074-3.046,3.771,3.771,0,0,1,.566-3.341c1.018-1.322,3.072-2.022,5.942-2.022h.276c5.138,0,34.765-4.931,47.417-7.039,3.4-.566,5.642-.938,6.134-1.007a7.222,7.222,0,0,1,.963-.073c2.011,0,2.928,1.224,3.06,4.095.059,1.3.91,16.593,1.988,35.952l.037.67v.021c1.958,35.167,4.639,83.335,4.675,85.358a5.283,5.283,0,0,1-1.29,3.994,6.327,6.327,0,0,1-4.663,1.507,17.392,17.392,0,0,1-2.09-.131ZM711.5,408.1a20.287,20.287,0,0,1,.371-7.39,14.978,14.978,0,0,1,2.455-5.61,4.035,4.035,0,0,1,2.537-1.748,3.335,3.335,0,0,1,.359-.02c1.536,0,2.916,1.142,3.993,3.3a29.5,29.5,0,0,1,2.352,10.124c.862,9.51-2.094,16.993-4.022,17.43a.651.651,0,0,1-.134.015C717.37,424.209,712.462,414.9,711.5,408.1Zm45.585-64.355c-1.347-.939-9.9-7.842-19.057-15.378-10.808-8.889-18.215-15.17-19.824-16.8a7.122,7.122,0,0,1-2.318-5.752,8.983,8.983,0,0,1,2.318-4.974c2.46-2.806,30.247-31.861,34.859-36.2,1.818-1.71,3.393-2.541,4.816-2.541,1.687,0,2.978,1.138,4.347,2.344l.222.2c.6.523,2.838,2.388,5.944,4.971,10.207,8.491,29.2,24.289,31.6,27.206a9.117,9.117,0,0,1,2.268,5.329,7.868,7.868,0,0,1-.927,4.056c-.478.908-6.783,7.888-16.867,18.674-8.473,9.066-16.715,17.7-17.993,18.867a6.389,6.389,0,0,1-4.38,1.609A8.938,8.938,0,0,1,757.09,343.749Zm-12.67-51.64c-.988,0-2.7.433-3.072,3.332a129.36,129.36,0,0,0,.489,20.344,3.243,3.243,0,0,0,3.1,3.022,4.95,4.95,0,0,0,2.785-1.038c3.03-2.145,20.916-17.267,22.057-18.36a4.8,4.8,0,0,1,2.95-1.291,1.6,1.6,0,0,1,1.707,1.538c.378,2.529.575,8.849-.245,11.166-.445,1.26-1.1,1.9-1.947,1.9a3.241,3.241,0,0,1-1.73-.658,40.745,40.745,0,0,1-4.262-3.644c-.351-.33-.654-.613-.886-.822l-.178-.162-.009-.008c-.452-.412-.749-.683-1.082-.683-.268,0-.557.186-.939.6-.115.134-.231.249-.324.349-.784.831-1.259,1.334-.166,2.381a104.485,104.485,0,0,0,11.275,8.188,4.349,4.349,0,0,0,1.877.5c1.236,0,2.72-.775,2.776-4.469,0-.434.015-.921.023-1.448.083-5.113.239-14.622-.268-17.657-.318-1.9-1.092-2.86-2.3-2.86a5.609,5.609,0,0,0-3.084,1.372c-1.13.847-4.663,3.674-8.751,6.945-6.343,5.075-13.533,10.828-14.532,11.415a3.683,3.683,0,0,1-1.829.526,2.279,2.279,0,0,1-2.337-2.262c-.268-2.38-.634-8.9,0-10.916.425-1.347,1.251-1.63,1.877-1.63a2.6,2.6,0,0,1,1.314.39c.55.331.96.56,1.259.727.216.122.369.206.457.268a.876.876,0,0,1,.4.642.755.755,0,0,1-.4.6,27.214,27.214,0,0,0-2.108,1.781c-.471.424-.877.79-1.073.938-.387.3-1.192.905-.981,1.743a6.013,6.013,0,0,0,.491,1.49.421.421,0,0,0,.361.248c.259,0,.622-.244,1.109-.744.67-.684,2.321-2.02,3.416-2.9.5-.4.888-.717,1-.818a.536.536,0,0,1,.379-.134,1.32,1.32,0,0,1,.847.387,15.052,15.052,0,0,1,.98,1.24.884.884,0,0,0,.7.307,1.132,1.132,0,0,0,.768-.307l.038-.034h0c.548-.495,1.465-1.323,1.79-1.569a.536.536,0,0,0,.2-.413c.014-.243-.072-.754-.8-1.453-1-.953-10.335-7.118-11.518-7.692a3.753,3.753,0,0,0-1.583-.355h0Z" transform="translate(-422.281 -262.105)" fill="#015cdc"/>
  </g>
</svg>
